# xmcd
#
# Track frame offsets:
#	150
#	11245
#	24282
#	38502
#	56711
#	69775
#	82124
#	100333
#	113550
#	130035
#	143956
#	158016
#	174464
#	186092
#	195793
#	201799
#
# Disc length: 2694 seconds
#
# Revision: 1
# Processed by: cddbd v1.5.2PL0 Copyright (c) Steve Scherf et al.
# Submitted via: audiograbber 1.83.01
#
DISCID=c70a8410
DTITLE=Various Artist - The Dukes Of Hazzard - Original Soundtrack
DYEAR=1980
DGENRE=Country
TTITLE0=The Hazzard County Boys - Good Ol' Boys
TTITLE1=Johnny Cash - The General Lee
TTITLE2=The Hazzard County Boys - Laughing All The Way To The Bank
TTITLE3=Tom Wopat - Up On Cripple Creek
TTITLE4=Doug Kershaw and The Hazzard County Boys - Cover Girl Eyes
TTITLE5=John Schneider - In The Driver's Seat
TTITLE6=James Best - Flash
TTITLE7=Catherine Bach - Down Home American Girl
TTITLE8=Sorrell Booke - Duelin' Dukes
TTITLE9=Doug Kershaw and The Hazzard County Boys - Keep Between Them Ditches
TTITLE10=Doug Kershaw and The Hazzard County Boys - Ballad Of General Lee
TTITLE11=John Schneider - Them Good Ol' Boys Are Bad
TTITLE12=Waylon Jennings and Willie Nelson - Mammas Don't Let Your Babies Grow Up
TTITLE12=To Be Cowboys (Remastered For Buddha - October 30, 2000)
TTITLE13=Waylon Jennings - Theme From The Dukes Of Hazzard (Good Ol' Boys)
TTITLE14=Tom Wopat and John Schneider - Carryin' On Like We Did Before (Tom Wopat
TTITLE14=and John Schneider)
TTITLE15=The General Lee - General Lee Dixie Horn
EXTD=
EXTT0=
EXTT1=
EXTT2=
EXTT3=
EXTT4=
EXTT5=
EXTT6=
EXTT7=
EXTT8=
EXTT9=
EXTT10=
EXTT11=
EXTT12=
EXTT13=
EXTT14=
EXTT15=
PLAYORDER=
